<svg xmlns="http://www.w3.org/2000/svg" xml:space="preserve" viewBox="0 0 512 512"><path fill="#5382a1" d="M333 307c9-6 21-11 21-11s-34 6-69 9c-42 4-88 4-111 1-54-7 30-27 30-27s-32-2-72 17c-48 23 116 33 201 11z"/><path fill="#f8981d" d="M257 278c-18-38-75-72 0-131 93-73 45-121 45-121 19 76-68 99-100 146-21 32 11 67 55 106z"/><path fill="#f8981d" d="M360 120s-158 39-83 126c23 25-6 48-6 48s57-29 31-65c-24-34-43-51 58-109z"/><path fill="#5382a1" d="m354 363-2 2c116-30 73-106 18-87-5 2-7 6-7 6l10-3c27-6 67 37-19 82zm42 56s13 11-14 19c-52 16-216 21-262 1-16-7 15-17 24-19 10-3 16-2 16-2-18-13-118 25-51 36 184 30 335-14 287-35z"/><path fill="#5382a1" d="M196 382c-71 20 43 60 133 22-15-6-26-13-26-13-40 8-58 9-95 4-30-3-12-13-12-13zm161 87c-71 13-158 12-210 3 0 0 11 9 66 13 82 5 210-3 213-43 0 0-6 15-69 27zm-39-126c-53 10-84 10-123 6-30-3-10-18-10-18-78 26 43 56 152 24-12-4-19-12-19-12z"/></svg>