<svg xmlns="http://www.w3.org/2000/svg" xmlns:xlink="http://www.w3.org/1999/xlink" viewBox="0 0 32 32"><defs><radialGradient id="b" cx="1341.3" cy="-3396.9" r="18.3" gradientTransform="translate(-1327 3406)" gradientUnits="userSpaceOnUse"><stop offset="0" stop-color="#fff"/><stop offset=".2" stop-color="#fbfbfb"/><stop offset=".4" stop-color="#efeff0"/><stop offset=".6" stop-color="#dadbdc"/><stop offset=".7" stop-color="#bebfc2"/><stop offset=".8" stop-color="#aeb0b3"/></radialGradient><radialGradient id="c" cx="6.7" cy="84.7" r="15.6" gradientTransform="matrix(1.072 0 0 1.166 -2 -86)" gradientUnits="userSpaceOnUse"><stop offset="0" stop-color="#fafdff"/><stop offset=".1" stop-color="#eef5fa"/><stop offset=".2" stop-color="#cfdfec"/><stop offset=".4" stop-color="#9dbbd5"/><stop offset=".6" stop-color="#588ab5"/><stop offset=".7" stop-color="#326fa4"/><stop offset=".8" stop-color="#2b6698"/><stop offset=".9" stop-color="#174e78"/><stop offset="1" stop-color="#003152"/></radialGradient><radialGradient id="d" cx="11.2" cy="-9.9" r="16.6" gradientTransform="matrix(1 0 0 1.062 0 23)" gradientUnits="userSpaceOnUse"><stop offset="0" stop-color="#ffd540"/><stop offset=".7" stop-color="#ec1c24"/><stop offset="1" stop-color="#760000"/></radialGradient><radialGradient id="a" cx="12.3" cy="26.1" r="2.1" gradientUnits="userSpaceOnUse"><stop offset="0" stop-color="#dddfe0"/><stop offset=".2" stop-color="#d9dbdc"/><stop offset=".4" stop-color="#cdcfd0"/><stop offset=".5" stop-color="#b8babb"/><stop offset=".7" stop-color="#9c9e9f"/><stop offset=".9" stop-color="#78797b"/><stop offset="1" stop-color="#5e5f61"/></radialGradient><radialGradient xlink:href="#a" id="e" cx="19.1" cy="26.1" r="2.1"/><radialGradient xlink:href="#a" id="f" cx="15.4" cy="16.2" r="2.7"/></defs><g style="isolation:isolate"><circle cx="16" cy="16" r="14" fill="url(#b)" transform="rotate(-42 16 16)"/><path fill="url(#c)" d="M20 6a10 10 0 0 0-7-2C9 4 4 8 3 15c0 8 5 13 12 13 11 0 17-10 10-21 5 11 0 18-7 18-5 0-9-4-9-11 0-9 7-10 11-8Z"/><path fill="url(#d)" d="M23 10V7a4 4 0 0 0-4 1 9 9 0 0 0-7 0 4 4 0 0 0-4-1l1 3a11 11 0 0 0-3 8l2 7 2-1a12 12 0 0 0 6 1 12 12 0 0 0 6-1l2 1 1-7a11 11 0 0 0-2-8Z"/><path fill="url(#a)" d="M11 28a2 2 0 1 1 3 0 2 2 0 1 0-3 0Z"/><path fill="url(#e)" d="M21 28a2 2 0 1 0-4 0 2 2 0 1 1 4 0Z"/><g fill="#231f20" opacity=".5" style="mix-blend-mode:multiply"><path d="m8 18-1 1a1 1 0 0 1 0-1 3 3 0 0 0 0 2 3 3 0 0 0 1-2Z"/><path d="m10 19-1 1a1 1 0 0 1-1-2 3 3 0 0 0 1 2 3 3 0 0 0 1-1Z"/><path d="m9 20-1 1a1 1 0 0 1-1-1 3 3 0 0 0 1 2 3 3 0 0 0 1-2Z"/><path d="M11 21h-1a1 1 0 0 1-1-1 3 3 0 0 0 0 2 3 3 0 0 0 2-1Zm-2 1-1 1a1 1 0 0 1 0-1 3 3 0 0 0 0 2 3 3 0 0 0 1-2Zm3-3-1 1a1 1 0 0 1-1-1 3 3 0 0 0 1 2 3 3 0 0 0 1-2Z"/></g><g fill="#231f20" opacity=".5" style="mix-blend-mode:multiply"><path d="m23 18 1 1a1 1 0 0 0 1-1 3 3 0 0 1-1 2 3 3 0 0 1-1-2Z"/><path d="m21 19 1 1a1 1 0 0 0 1-2 3 3 0 0 1 0 2 3 3 0 0 1-2-1Z"/><path d="m23 20 1 1a1 1 0 0 0 0-1 3 3 0 0 1 0 2 3 3 0 0 1-1-2Zm-2 1h1a1 1 0 0 0 1-1 3 3 0 0 1-1 2 3 3 0 0 1-1-1Zm1 1 1 1a1 1 0 0 0 1-1 3 3 0 0 1-1 2 3 3 0 0 1-1-2Zm-2-3 1 1a1 1 0 0 0 0-1 3 3 0 0 1 0 2 3 3 0 0 1-1-2Z"/></g><circle cx="11.3" cy="14.1" r="3.8" fill="#fff"/><circle cx="12.1" cy="14.4" r="1.9" fill="#bdbfc1"/><circle cx="12.1" cy="14.4" r="1.2" fill="#231f20"/><circle cx="11.6" cy="14" r=".4" fill="#fff"/><circle cx="20.1" cy="14.1" r="3.8" fill="#fff"/><circle cx="20.9" cy="14.4" r="1.9" fill="#bdbfc1"/><circle cx="20.9" cy="14.4" r="1.2" fill="#231f20"/><circle cx="20.4" cy="14" r=".4" fill="#fff"/><path fill="url(#f)" d="m16 22 2-5a2 2 0 0 0-4 0l2 5Z"/></g></svg>