<svg xmlns="http://www.w3.org/2000/svg" viewBox="0 0 50 50"><path d="M22 2a1 1 0 0 0-1 1l-1 6-3 1-5-3a1 1 0 0 0-1 0l-4 4a1 1 0 0 0 0 1l3 5-1 3-6 1a1 1 0 0 0-1 1v6a1 1 0 0 0 1 1l6 1 1 3-3 5a1 1 0 0 0 0 1l4 4a1 1 0 0 0 1 0l5-3 3 1 1 6a1 1 0 0 0 1 1h6a1 1 0 0 0 1-1l1-6 3-1 5 3a1 1 0 0 0 1 0l4-4a1 1 0 0 0 0-1l-3-5 1-3 6-1a1 1 0 0 0 1-1v-6a1 1 0 0 0-1-1l-6-1-1-3 3-5a1 1 0 0 0 0-1l-4-4a1 1 0 0 0-1 0l-5 3-3-1-1-6a1 1 0 0 0-1-1h-6zm1 2h4l1 6a1 1 0 0 0 1 0l4 2a1 1 0 0 0 1 0l4-3 3 2-3 5a1 1 0 0 0 0 1 15 15 0 0 1 2 4 1 1 0 0 0 0 1l6 1v4l-6 1a1 1 0 0 0 0 1 16 16 0 0 1-2 4 1 1 0 0 0 0 1l3 5-2 2-5-3a1 1 0 0 0-1 0l-4 2a1 1 0 0 0-1 0l-1 6h-4l-1-6a1 1 0 0 0-1 0l-4-2a1 1 0 0 0-1 0l-5 3-2-2 3-5a1 1 0 0 0 0-1l-2-4a1 1 0 0 0 0-1l-6-1v-4l6-1a1 1 0 0 0 0-1 15 15 0 0 1 2-4 1 1 0 0 0 0-1l-3-5 2-2 5 3a1 1 0 0 0 1 0l4-2a1 1 0 0 0 1 0l1-6zm2 13a8 8 0 0 0 0 16 8 8 0 0 0 0-16zm0 2a6 6 0 0 1 6 6 6 6 0 0 1-6 6 6 6 0 0 1-6-6 6 6 0 0 1 6-6z"/></svg>