<svg xmlns="http://www.w3.org/2000/svg" viewBox="0 0 166 155"><defs><linearGradient id="a" gradientUnits="userSpaceOnUse" x1="28" y1="3" x2="152" y2="64"><stop offset="0" stop-color="#76b3e1"/><stop offset="0" stop-color="#dcf2fd"/><stop offset="1" stop-color="#76b3e1"/></linearGradient><linearGradient id="b" gradientUnits="userSpaceOnUse" x1="96" y1="33" x2="74" y2="105"><stop offset="0" stop-color="#76b3e1"/><stop offset="1" stop-color="#4377bb"/><stop offset="1" stop-color="#1f3b77"/></linearGradient><linearGradient id="c" gradientUnits="userSpaceOnUse" x1="18" y1="64" x2="144" y2="150"><stop offset="0" stop-color="#315aa9"/><stop offset="1" stop-color="#518ac8"/><stop offset="1" stop-color="#315aa9"/></linearGradient><linearGradient id="d" gradientUnits="userSpaceOnUse" x1="75" y1="75" x2="24" y2="261"><stop offset="0" stop-color="#4377bb"/><stop offset="1" stop-color="#1a336b"/><stop offset="1" stop-color="#1a336b"/></linearGradient></defs><path d="M163 35S110-4 69 5l-3 1c-6 2-11 5-14 9l-2 3-15 26 26 5c11 7 25 10 38 7l46 9 18-30z" fill="#76b3e1"/><path d="M163 35S110-4 69 5l-3 1c-6 2-11 5-14 9l-2 3-15 26 26 5c11 7 25 10 38 7l46 9 18-30z" opacity="0" fill="url(#a)"/><path d="m52 35-4 1c-17 5-22 21-13 35 10 13 31 20 48 15l62-21S92 26 52 35z" fill="#518ac8"/><path d="m52 35-4 1c-17 5-22 21-13 35 10 13 31 20 48 15l62-21S92 26 52 35z" opacity="0" fill="url(#b)"/><path d="M134 80a45 45 0 0 0-48-15L24 85 4 120l112 19 20-36c4-7 3-15-2-23z" fill="url(#c)"/><path d="M114 115a45 45 0 0 0-48-15L4 120s53 40 94 30l3-1c17-5 23-21 13-34z" fill="url(#d)"/></svg>