<svg xmlns="http://www.w3.org/2000/svg" width="24" height="24" viewBox="0 0 32 32"><path d="M8.2 1.2c1.2 1.6 2.6 3.6 4.2 6.2.4.7.3 1.5-.2 2.5l-1.5 2.8a55.3 55.3 0 0 0 8.6 8.6l2.8-1.6c.5-.2 1-.4 1.5-.4.3 0 .7.1 1 .3 1.8 1 3.9 2.5 6.2 4.1.5.4.7.8.8 1.4 0 .5-.1 1.1-.5 1.8a29.6 29.6 0 0 1-3 3.3c-.9.8-1.6 1.2-2.2 1.2-4.3-.1-9.6-3.3-15.8-9.6C3.9 15.6.7 10.3.5 6.1c0-.6.4-1.3 1.2-2.3A18 18 0 0 1 5.1 1c.4-.3 1-.5 1.5-.5a2 2 0 0 1 1.6.8zm-2 1.2a16 16 0 0 0-2.4 2c-.7.8-1.2 1.4-1.3 1.7.2 3.8 3.2 8.6 9 14.4s10.6 8.8 14.4 9c.3-.1.8-.6 1.6-1.3s1.4-1.6 2-2.5c.1-.1.2-.3.1-.4l-6-4-.6.1-2.8 1.5-1 .7-1-.7c-1.4-1-3-2.4-4.9-4.3a38.5 38.5 0 0 1-4.2-4.9l-.7-1 .6-1a1018 1018 0 0 0 1.7-3.3l-4-6.1-.5.1z"/></svg>