<svg xmlns="http://www.w3.org/2000/svg" viewBox="0 0 50 50"><path d="M22.2 2a1 1 0 0 0-1 .8l-1 6c-1.1.3-2.2.8-3.3 1.4L12 6.7a1 1 0 0 0-1.3 0l-3.9 4a1 1 0 0 0 0 1.2l3.4 5c-.6 1-1 2.2-1.4 3.3l-6 1a1 1 0 0 0-.8 1v5.5a1 1 0 0 0 .8 1l6 1c.3 1.2.8 2.3 1.4 3.4L6.7 38a1 1 0 0 0 0 1.3l4 3.9a1 1 0 0 0 1.2 0l5-3.4c1 .6 2.2 1 3.3 1.4l1 6a1 1 0 0 0 1 .8h5.5a1 1 0 0 0 1-.8l1-6c1.2-.4 2.3-.8 3.4-1.4l5 3.5a1 1 0 0 0 1.3-.1l3.8-4a1 1 0 0 0 .1-1.2l-3.5-5c.6-1 1-2 1.4-3.3l6-1a1 1 0 0 0 .8-1v-5.5a1 1 0 0 0-.8-1l-6-1c-.4-1.1-.8-2.2-1.4-3.3l3.5-5a1 1 0 0 0-.1-1.2l-4-4a1 1 0 0 0-1.2 0l-5 3.5c-1-.6-2-1-3.3-1.4l-1-6a1 1 0 0 0-1-.8h-5.5zm.9 2h3.8l1 5.7a1 1 0 0 0 .7.8c1.5.3 2.8 1 4 1.7a1 1 0 0 0 1.2 0l4.7-3.4 2.7 2.7-3.4 4.7a1 1 0 0 0 0 1.1 15 15 0 0 1 1.7 4 1 1 0 0 0 .8.8l5.7 1v3.8l-5.7 1a1 1 0 0 0-.8.7 16 16 0 0 1-1.7 4 1 1 0 0 0 0 1.2l3.4 4.7-2.7 2.7-4.7-3.4a1 1 0 0 0-1.1 0c-1.3.8-2.6 1.3-4 1.7a1 1 0 0 0-.8.8l-1 5.7H23l-1-5.7a1 1 0 0 0-.7-.8c-1.5-.3-2.9-1-4.1-1.7a1 1 0 0 0-1.1 0l-4.7 3.4-2.7-2.7 3.3-4.7a1 1 0 0 0 0-1c-.7-1.3-1.3-2.7-1.7-4.2a1 1 0 0 0-.8-.7l-5.6-1V23l5.6-1a1 1 0 0 0 .8-.7 15 15 0 0 1 1.7-4.1 1 1 0 0 0 0-1.1l-3.3-4.7 2.7-2.7 4.7 3.3a1 1 0 0 0 1 0c1.3-.7 2.7-1.3 4.2-1.6a1 1 0 0 0 .7-.8l1-5.7zM25 17a8 8 0 0 0 0 16 8 8 0 0 0 0-16zm0 2a6 6 0 0 1 6 6 6 6 0 0 1-6 6 6 6 0 0 1-6-6 6 6 0 0 1 6-6z"/></svg>